<svg xmlns="http://www.w3.org/2000/svg" xmlns:xlink="http://www.w3.org/1999/xlink" width="628" height="169.69" viewBox="0 0 628 169.69">
  <defs>
    <filter id="Rectangle_404574" x="0" y="19.092" width="628" height="150.598" filterUnits="userSpaceOnUse">
      <feOffset dy="3" input="SourceAlpha"/>
      <feGaussianBlur stdDeviation="3" result="blur"/>
      <feFlood flood-opacity="0.161"/>
      <feComposite operator="in" in2="blur"/>
      <feComposite in="SourceGraphic"/>
    </filter>
    <clipPath id="clip-path">
      <rect id="Rectangle_404748" data-name="Rectangle 404748" width="431" height="158" transform="translate(0 0.146)" fill="none"/>
    </clipPath>
  </defs>
  <g id="Group_1176582" data-name="Group 1176582" transform="translate(-801 -5933)">
    <g transform="matrix(1, 0, 0, 1, 801, 5933)" filter="url(#Rectangle_404574)">
      <rect id="Rectangle_404574-2" data-name="Rectangle 404574" width="610" height="132.598" rx="10" transform="translate(9 25.09)" fill="#003f62"/>
    </g>
    <g id="Group_1176581" data-name="Group 1176581" transform="translate(899.375 5932.802)">
      <rect id="Rectangle_404738" data-name="Rectangle 404738" width="79.901" height="58.594" transform="translate(301.407 9.635)" fill="#98d1d1"/>
      <path id="Path_1242214" data-name="Path 1242214" d="M0,0H52.9V72.516H0Z" transform="translate(20.969 4.732)" fill="#98d1d1"/>
      <line id="Line_828" data-name="Line 828" x2="36.101" transform="translate(29.366 14.464)" fill="none" stroke="#cbe7e8" stroke-miterlimit="10" stroke-width="17.287"/>
      <line id="Line_829" data-name="Line 829" x2="36.101" transform="translate(29.366 45.856)" fill="none" stroke="#cbe7e8" stroke-miterlimit="10" stroke-width="17.287"/>
      <line id="Line_830" data-name="Line 830" x2="36.101" transform="translate(29.366 40.624)" fill="none" stroke="#cbe7e8" stroke-miterlimit="10" stroke-width="17.287"/>
      <line id="Line_831" data-name="Line 831" x2="36.101" transform="translate(29.366 19.696)" fill="none" stroke="#cbe7e8" stroke-miterlimit="10" stroke-width="17.287"/>
      <path id="Path_1242215" data-name="Path 1242215" d="M0,0H36.1" transform="translate(29.366 24.928)" fill="none" stroke="#cbe7e8" stroke-width="17.287"/>
      <line id="Line_833" data-name="Line 833" x2="36.101" transform="translate(29.366 30.16)" fill="none" stroke="#cbe7e8" stroke-miterlimit="10" stroke-width="17.287"/>
      <line id="Line_834" data-name="Line 834" x2="36.101" transform="translate(29.366 35.392)" fill="none" stroke="#cbe7e8" stroke-miterlimit="10" stroke-width="17.287"/>
      <rect id="Rectangle_404740" data-name="Rectangle 404740" width="2.407" height="6.069" transform="translate(36.77 64.796)" fill="#003f62"/>
      <rect id="Rectangle_404741" data-name="Rectangle 404741" width="2.407" height="6.226" transform="translate(41.897 64.639)" fill="#003f62"/>
      <rect id="Rectangle_404742" data-name="Rectangle 404742" width="2.407" height="10.516" transform="translate(47.025 60.349)" fill="#003f62"/>
      <rect id="Rectangle_404743" data-name="Rectangle 404743" width="2.407" height="9.993" transform="translate(52.152 60.872)" fill="#003f62"/>
      <rect id="Rectangle_404744" data-name="Rectangle 404744" width="2.407" height="13.394" transform="translate(57.279 57.471)" fill="#003f62"/>
      <rect id="Rectangle_404745" data-name="Rectangle 404745" width="22.916" height="0.942" transform="translate(36.822 70.394)" fill="#003f62"/>
      <path id="Path_1031378" data-name="Path 1031378" d="M580.148,900.741l-.106-1.041,7.831-.8,5.2-4.809,5.194,1.06,4.955-2.9.528.9-5.3,3.1-5.06-1.033-5.059,4.682Z" transform="translate(-544.999 -838.235)" fill="#003f62"/>
      <g id="Group_1176580" data-name="Group 1176580" transform="translate(-0.325 0.051)">
        <g id="Group_1176579" data-name="Group 1176579" clip-path="url(#clip-path)">
          <path id="Path_1031379" data-name="Path 1031379" d="M946.452,884.14a2.741,2.741,0,0,1-1.183-.132.438.438,0,0,0-.544.224c-.089.152-.146.492.07.584a2.765,2.765,0,0,0,1,.2,2.423,2.423,0,0,0-.112.871.307.307,0,0,0,.434.255.579.579,0,0,0,.336-.571,1.222,1.222,0,0,1,.26-.812c.175-.242.071-.631-.257-.62" transform="translate(-887.208 -830.509)" fill="#003f62"/>
          <path id="Path_1242213" data-name="Path 1242213" d="M0,0H52V68.763H0Z" transform="translate(106.821 -0.041)" fill="#98d1d1"/>
          <path id="Path_1031380" data-name="Path 1031380" d="M1943.883,755.919A16.249,16.249,0,0,0,1960.127,740h-32.488a16.249,16.249,0,0,0,16.244,15.92" transform="translate(-1810.7 -695.247)" fill="#003f62"/>
          <path id="Path_1031381" data-name="Path 1031381" d="M1943.753,466a16.253,16.253,0,0,0-16.253,16.253c0,.112.006.222.009.333H1960c0-.111.008-.221.008-.333A16.253,16.253,0,0,0,1943.753,466" transform="translate(-1810.57 -437.833)" fill="#008d8e"/>
          <path id="Path_1031382" data-name="Path 1031382" d="M1943.844,466l-.091,0a16.253,16.253,0,1,0,0,32.505l.091,0Z" transform="translate(-1810.57 -437.833)" fill="#cbe7e8"/>
          <rect id="Rectangle_404747" data-name="Rectangle 404747" width="431" height="6" transform="translate(0 152.146)" fill="#99c6d9"/>
          <path id="Path_1031383" data-name="Path 1031383" d="M5640.23,825.944c-.156-.877-.06.111,0,0" transform="translate(-5298.485 -775.646)" fill="#f0f7ff"/>
          <path id="Path_1031384" data-name="Path 1031384" d="M5117.893,374.576c.452-.773-.208.184,0,0" transform="translate(-4807.806 -351.656)" fill="#f0f7ff"/>
          <path id="Path_1031385" data-name="Path 1031385" d="M5270.207,630.388a2.083,2.083,0,0,0-2.075-1.4l-.117.035-.009-.023a.872.872,0,0,0-.951-.366l-.835-.957a1.026,1.026,0,0,0-.862-.618c-.195-.367-.424-.7-.613-.752l-.551-.311a.955.955,0,0,0-.263-.1c-.229-.226-.273-.227-.243-.169-.44-.2-.95.032-1.4-.082a2.927,2.927,0,0,0-.7-.876,1.673,1.673,0,0,0-.872-.063,1.253,1.253,0,0,0-.534.366,3.972,3.972,0,0,0-.633.862c-.074.528-.239,1.088.121,1.462-.17.147-.316.286-.409.383a1.581,1.581,0,0,0-.39,1.123c-.008.592-.017,1.187.008,1.779.174,1.047.662.95,1.323,1.535.241.214.257.625.542.812a1.394,1.394,0,0,0,.585.085c0,.02,0,.039,0,.06l.305.265c-.049,1.166.077,2.409.117,3.585.087.946.594,1.521.756,2.473a3.853,3.853,0,0,0,1.082,2.673c.141.883.1,1.861,1.172,2.259a.4.4,0,0,0,.426.017c.589-.642.319-1.417.332-2.147a2.3,2.3,0,0,0-.593-.632,10.672,10.672,0,0,0,.84-.744,1.134,1.134,0,0,0,.153-.375,1.361,1.361,0,0,0,.015-.594,2.886,2.886,0,0,1-.126-.521l.13-.208.286-.286a1.726,1.726,0,0,0,.258-.034q.031-.411.062-.823l.475-.342.119-.493a.707.707,0,0,0,.156-.1c.365-.356.186-.815.23-1.232.05.013.1-.014.154-.087l.828-.686c1,.249.836-2.3.89-2.846.382-.167.59-.658,1.1-.591l.051-.055.023-.027v0c.54-.642-.53-.716-.357-1.232m-4.424,8.887c0-.033,0-.065-.007-.1l.079-.025.078.069a.166.166,0,0,1-.15.054" transform="translate(-4940.278 -586.903)" fill="#cbe7e8"/>
          <path id="Path_1031386" data-name="Path 1031386" d="M5429.147,312.466a11.146,11.146,0,0,1,2.463-.738.949.949,0,0,0,.342-.209,6.838,6.838,0,0,0,.42-1.263,4.144,4.144,0,0,0,1.038-.13c.009-.084.017-.168.023-.252.373.012.862-.544,1.031-.841.238-.421.525-.293.038-.682a8.412,8.412,0,0,0-2.182-.405,4.292,4.292,0,0,0-1.436-.029c-.011-.048-.177-.02-.649.21l-1.653.053-.253.078.037.032c-.529.048-.829.449-1.286.436-.4.018-.876-.1-.979.5-.018.792,1.052,1.2,1.7,1.772a.915.915,0,0,0-.356.076,1.3,1.3,0,0,0-.464.465c-.206.518-.382,1.034.155,1.474l.809.6c.374-.318,1.278.112,1.2-.848l-.028-.287h0c0,.028.019.013.036-.015" transform="translate(-5097.397 -289.273)" fill="#cbe7e8"/>
          <path id="Path_1031387" data-name="Path 1031387" d="M5101.052,367.594a1.159,1.159,0,0,0,.031-.449,1.263,1.263,0,0,0-.691-.816,3.414,3.414,0,0,0-.781-.167,1.113,1.113,0,0,0,.506-1.04.717.717,0,0,0-.28-.359c-.73-.31-.9.219-1.11.7-.5-.229-.821-.743-1.311-.984a.805.805,0,0,0,.057-.132c0-.014,0-.026,0-.04.436-.193.4-.507.213-.86a.78.78,0,0,0,.245.018c.436-.288,1.116-.29,1.3-.869a.881.881,0,0,0,.171.107,3.4,3.4,0,0,0,.967.085,1.036,1.036,0,0,0,.349,1.259.711.711,0,0,0,.4.137l.188-.1c.009-.543.313-1.046.329-1.588l.062-.024a4.7,4.7,0,0,0,.489-.3,2.045,2.045,0,0,0,.854-1.206c.074-.186.173-.469.292-.748,0,.016-.009.032-.015.049l.518.033a2.552,2.552,0,0,1,.187-.905,2.291,2.291,0,0,1,.278.072.8.8,0,0,0,.5-.064.869.869,0,0,0,.23-.252c.247-.97,1.351-.173,1.743-.845a1.073,1.073,0,0,0,.423-1.082.925.925,0,0,0-.142-.3l.03-.029a.728.728,0,0,0,.267-.091c.248.049.512.068.626.353.252.071.389-.061.483-.271l.3-.585c-.1-.285-.194-.57-.292-.855.012-.1.024-.2.036-.3q-.048-.411-.1-.821a1.058,1.058,0,0,1-.291-.083.622.622,0,0,0,.33-.581q.036-.269.071-.538l-.283-.3h0c.149-.457.948-.433.814-1.1-.319-.4-.857-.573-1.125-.907a2.045,2.045,0,0,1-1.153-.288c-.218.314-.57.211-.867.277l-.31.753h0c.048-.118.019-.058-.01.007l-.272.189a.861.861,0,0,0-.273-.357,1.1,1.1,0,0,1-.273-.062l-.9.6a.56.56,0,0,0-.1.433.842.842,0,0,0,.124.236c-.036.231-.021.242,0,.187.048.382.43.49.732.664.64.047,1.238.042,1.086-.854a.347.347,0,0,0,.286.027.853.853,0,0,0,.2-.186,6.107,6.107,0,0,0,.835.246.685.685,0,0,0-.067.1.5.5,0,0,0,.047.338.56.56,0,0,0,.176.12c0,.007,0,.013-.006.02a1.174,1.174,0,0,0-.075.626c0,.008.007.015.01.022a.594.594,0,0,0-.285-.106c0-.012-.005-.024-.009-.035s-.007-.012-.01-.019l.061-.171a.537.537,0,0,0-.879-.366.19.19,0,0,0-.086.114l-.075.01c-.742.232-.665.872-.75,1.432l-.062-.006a2.6,2.6,0,0,1-.931.19,1.723,1.723,0,0,1-.671-.12c-.093-.053-.179-.115-.268-.175a1.526,1.526,0,0,1-.3-.628.688.688,0,0,0,.391-.292.92.92,0,0,0,.071-.413,1.235,1.235,0,0,0-.441-.692,2.219,2.219,0,0,0-.822-.132c0-.02,0-.04,0-.061a.572.572,0,0,0-.485-.417l-.845,0-.859-.389c-.75-.522-2.187-.208-3.01-.137-.61.053-2.514-.553-3.053-.206-.678.308-1.556.206-2.007.979a.688.688,0,0,0-.2.313,1.262,1.262,0,0,0-.273-.046,3.636,3.636,0,0,0-1.055.591.9.9,0,0,0-.188.362c-.046.471.269.746.561,1.033.574.079,1.132.113,1.456-.515a.465.465,0,0,1-.024-.051c.6.211,1.509.082,1.622,1.053a1.755,1.755,0,0,1,.249,1.067,3.4,3.4,0,0,1-.387,1.615,4.563,4.563,0,0,0-.584,1.193,6.617,6.617,0,0,0,0,1.16c-.019.561-.17,1.169.533,1.468.029.246.058.491.086.737a.379.379,0,0,0,.36.14c.052.331.2.647.215.983l-.329-.209c-.106.37.2.6.31.892l.158-.193c.008.012.015.025.023.037a.978.978,0,0,0,.31.23,1.628,1.628,0,0,0,.386.068,2.963,2.963,0,0,0,.328-.016,4.777,4.777,0,0,0,.643,1.6c-.146-.092-.463-.259.059.047l.058,0a1.571,1.571,0,0,0,.069.6,1.168,1.168,0,0,0,1.663.324l1.151.725.775.686a.8.8,0,0,0,.857-.052,1.329,1.329,0,0,0,.428-.52m6.183-13.483a.426.426,0,0,0-.036.044.761.761,0,0,0-.035-.147.713.713,0,0,0,.071.1m-.322.624c.021,0,.044-.006.066-.01a.444.444,0,0,0,.049-.03c-.016.051-.031.105-.043.16h-.078c0-.04,0-.08.006-.12" transform="translate(-4781.706 -329.358)" fill="#cbe7e8"/>
          <path id="Path_1031388" data-name="Path 1031388" d="M5529.786,513.706c.01-.1.021-.2.03-.3l-.574.038a1.354,1.354,0,0,0-.453-.322,1.335,1.335,0,0,0-.083-.353,2.48,2.48,0,0,0-.686-.783,1.128,1.128,0,0,0-.739-.278.9.9,0,0,0-.1.015l-.853-1.735c-.057-.079-.091-.174-.146-.254,0-.025,0-.05.007-.075a.356.356,0,0,0,.116-.216.287.287,0,0,0-.26-.274c-.058-.121-.125-.243-.191-.364a2.163,2.163,0,0,0,.238-.765.693.693,0,0,0-.6-.569l-.013,0a.832.832,0,0,0-.294-.425,4.349,4.349,0,0,0-1.677-.476,5.2,5.2,0,0,0-1.11.69.694.694,0,0,0-.47-.12.663.663,0,0,0-.3.117.728.728,0,0,0-.1-.043c-.016-.018-.031-.036-.046-.056-.173-.429-.095-.874-.373-1.27a1.114,1.114,0,0,0-1.058-.613c-.459-.05-.847.225-1.282.283-.288.045-1.306.667-1.382.983l-.542.039a.277.277,0,0,0-.052.352.6.6,0,0,0,.125.158,1.563,1.563,0,0,1-.479.322.391.391,0,0,1-.241-.073,2.057,2.057,0,0,1-.2-.154c-.579.093-.709.915-1.033,1.3a.8.8,0,0,0-.149.35,1.979,1.979,0,0,0,.032.217c-.009.048-.019.1-.028.145-.03,0-.062-.008-.1-.011-.5.07-.683.342-.536.828.466,1.142-.737,2.336.108,3.466a.649.649,0,0,0,.816.541.557.557,0,0,0,.3,0c-.011.022-.021.044-.033.066.107,1.314,1.068,1.112,1.931,1.086.663-.243,1.243.284,1.85.053l.014-.008a10.729,10.729,0,0,0,.678,1.554c.319.6,1.1,1.148,1.1,1.878h0l.217,1.437a1.977,1.977,0,0,0,.069,2.3h0q.234,1.315.467,2.631a.827.827,0,0,0-.1.356c.014.331.087.623.467.716a1.313,1.313,0,0,0,1.727.089c.147-.092.271-.15.4-.231.208,0,.433.1.628.041a1.7,1.7,0,0,0,.639-.442,4.253,4.253,0,0,1,.648-.992,3.059,3.059,0,0,0,.011-1.438c.233-.212.113-.511.017-.8.006-.026.016-.051.023-.076a.3.3,0,0,0,.163-.144l.09-.213a.657.657,0,0,1,.064-.048q.322-.093.637-.21a2.351,2.351,0,0,0,.538-.564,2.563,2.563,0,0,0,.292-1.61,1.382,1.382,0,0,0-.046-.415c-.181-.288-.248-.646-.541-.865l-.033-.013a.406.406,0,0,0,.011-.048l.234-.061c.358-.178.407-.518.451-.861a.777.777,0,0,1,.052-.253.6.6,0,0,0,.176-.269.663.663,0,0,0,.021-.2l.1-.11c0-.033,0-.066.008-.1a.682.682,0,0,0,.26-.208c.147-.309.8-.281.562-.848a2.108,2.108,0,0,1-.252-.34,6.215,6.215,0,0,0,.847-.544.417.417,0,0,0,.024-.607l-.046-.008" transform="translate(-5179.964 -474.729)" fill="#cbe7e8"/>
          <path id="Path_1031389" data-name="Path 1031389" d="M5558.06,431.6l-.039.008c-.26.393-.479.774.254.88l.526-.372c-.043-.486-.326-.6-.742-.516" transform="translate(-5221.101 -405.488)" fill="#f0f7ff"/>
          <path id="Path_1031390" data-name="Path 1031390" d="M5747.355,798.156q.007.279.012.558c.083.014.166.026.249.033q.182-.1.015-.281l-.276-.31" transform="translate(-5399.206 -749.883)" fill="#f0f7ff"/>
          <path id="Path_1031391" data-name="Path 1031391" d="M5974.8,692.349l.1.285.25-.012a.149.149,0,0,0,.022-.021.194.194,0,0,0,.037-.247c-.215-.172-.253.049-.414,0" transform="translate(-5612.885 -650.422)" fill="#f0f7ff"/>
          <path id="Path_1031392" data-name="Path 1031392" d="M6127.156,700.552c.324-.065-.36-.234,0,0" transform="translate(-5755.915 -658.075)" fill="#f0f7ff"/>
          <path id="Path_1031393" data-name="Path 1031393" d="M6092.271,691.046a.736.736,0,0,0,.365-.188c.04.3.1.606.161.906a.743.743,0,0,0,.468.417,1.093,1.093,0,0,0,.623-.121,3.442,3.442,0,0,0,.7-.464l.116-.172a.738.738,0,0,0-.1-.946,1,1,0,0,0-.824-.266.7.7,0,0,0-.8.023.415.415,0,0,0-.128-.322c-.525.213-.606-.626-1.108-.468-.023.169-.046.338-.069.507a.808.808,0,0,0-.157.346,1.079,1.079,0,0,0,.129.361.655.655,0,0,0,.626.387" transform="translate(-5722.534 -647.734)" fill="#cbe7e8"/>
          <path id="Path_1031394" data-name="Path 1031394" d="M6093.615,697.248c.023-.169-.08.1,0,0" transform="translate(-5724.477 -655.03)" fill="#f0f7ff"/>
          <path id="Path_1031395" data-name="Path 1031395" d="M6065.633,494.519a.9.9,0,0,0-.148.436.775.775,0,0,0,.478.718q.482-.084.969-.133l.146-.09a.476.476,0,0,0,.043-.484l-.032-.032a.725.725,0,0,0,.459-.219l.545-.332a3.148,3.148,0,0,0-.531-1.732q-.266.335-.563.642a2.8,2.8,0,0,0-.552.307.849.849,0,0,0-.155.654.661.661,0,0,0-.658.266" transform="translate(-5698.079 -462.871)" fill="#cbe7e8"/>
          <path id="Path_1031396" data-name="Path 1031396" d="M5746.758,697.753c-.031.082.083-.074,0,0" transform="translate(-5398.639 -655.538)" fill="#f0f7ff"/>
          <path id="Path_1031397" data-name="Path 1031397" d="M6005.734,652.64l.31-.573a2.123,2.123,0,0,0,.133-.22l-.052.119a.53.53,0,0,0,.148.362l.535.344c.085.049.075.041.042.021a.7.7,0,0,0,.613,0,.793.793,0,0,0,.2-.4,3.586,3.586,0,0,0,.066-.508l-.581-.483.021.1a.692.692,0,0,1-.069-.258.749.749,0,0,0-.445.055.788.788,0,0,0-.1-.576c-.08-.195-.3-.35-.172-.6.05-.33.041-.622-.409-.625-.191.3-.68.4-.584.888-.077-.391-.092-.061-.045.01l-.437.092c-.128.017-.185.05-.175.1a2.827,2.827,0,0,0-.344.038.852.852,0,0,0-.331.211l-.077.181c-.154.613.25,1.014.553,1.454a1.951,1.951,0,0,0,1.206.271m.561-1.163c.029-.008.058-.016.084-.026a1.865,1.865,0,0,0-.143.261.965.965,0,0,0,.058-.235m-1.011-1.087.083-.087.009-.007a.483.483,0,0,1-.092.094" transform="translate(-5640.26 -610.128)" fill="#cbe7e8"/>
          <path id="Path_1031398" data-name="Path 1031398" d="M6038.249,692.654c-.1.191.13-.192,0,0" transform="translate(-5672.465 -650.715)" fill="#f0f7ff"/>
          <path id="Path_1031399" data-name="Path 1031399" d="M5978.24,683.613a.349.349,0,0,0-.179.023c.039.225.146.368.4.337a1.4,1.4,0,0,0,.234-.044.233.233,0,0,0-.039-.094.474.474,0,0,0-.417-.221" transform="translate(-5615.947 -642.271)" fill="#f0f7ff"/>
          <path id="Path_1031400" data-name="Path 1031400" d="M5628.942,405.221a.511.511,0,0,1-.1.007c.061,0,.092,0,.1-.007" transform="translate(-5287.865 -380.733)" fill="#f0f7ff"/>
          <path id="Path_1031401" data-name="Path 1031401" d="M6023.292,748.742h0a.253.253,0,0,0-.053-.212l.3-.287c-.308-.356-.414-.87-.872-1.108l-.047-.6a1.363,1.363,0,0,1-.222-.04,1.933,1.933,0,0,1,.042-1.436.5.5,0,0,1-.047-.232l-.312-.035a.846.846,0,0,1-.288.2q-.255.476-.509.951h0l-.062.061c-.074-.057-.148-.111-.221-.158a1.247,1.247,0,0,0-.79,0,.564.564,0,0,1-.067-.5.9.9,0,0,0-.011-.141c-.047-.392-.266-.567-.723-.442a1.346,1.346,0,0,0-.425.815,1.094,1.094,0,0,0-.3-.052c-.35,0-.712-.021-1.06,0a1.222,1.222,0,0,0-.345.09c-.267.159-.529.324-.579.672.013.177.085.364-.083.512-.436.648-1.729.238-1.762,1.382,0-.212,0-.979,0,.048q.009.087.023.174a1.056,1.056,0,0,0-.015,1.266h0c.021.214.052.427.093.638a.955.955,0,0,0,.23.241l.263.008c-.02,0-.016.01,0,.023q0,.116-.006.232h0l-.231.287.82-.02a.2.2,0,0,0,.054-.252c.062-.017.122-.034.183-.053a1.284,1.284,0,0,0,.058-.19.625.625,0,0,0,.068-.029l.829.009a.162.162,0,0,1-.074-.1,1.177,1.177,0,0,1,.458.008c.267.113.53.231.794.352a.633.633,0,0,0-.027.129c.031.546.817,1.226,1.122,1.627a.345.345,0,0,0,.405.046.8.8,0,0,0,.065-.059,2,2,0,0,0,.988-.252l.29-.318c.225-.03.479,0,.584-.279h0c.343-.057.763-.043.56-.605h0l.443-.486.392-.376.1-.535c.308-.335.436-.663-.034-.971" transform="translate(-5650.334 -699.684)" fill="#cbe7e8"/>
          <path id="Path_1031402" data-name="Path 1031402" d="M5591.381,346.529a.719.719,0,0,0,.212-.156.865.865,0,0,0,.188-.54,10.743,10.743,0,0,0-.011-1.593c.177,0,.333-.04.291-.18a.748.748,0,0,0,.209-.081c.06,0,.075-.033.07-.079a.771.771,0,0,0,.146-.026c.006-.029.01-.058.016-.087.082,0,.164-.008.246-.015a1.006,1.006,0,0,0,.765-.33,2.255,2.255,0,0,0,.554-2.664,15.133,15.133,0,0,0-.7-1.46,1.165,1.165,0,0,0-.377-.277c.254.081.508.239.767.1l.2.186a.309.309,0,0,0,.281-.288q.014-.418.027-.835h0l.564-.573a2.1,2.1,0,0,1,.265-.053.876.876,0,0,1,.557-.865c.165,0-.048-.519,0-.6a.954.954,0,0,1,.071-.254l-.327-.586a.173.173,0,0,0-.158-.092.537.537,0,0,0-.407-.509,3.5,3.5,0,0,0-.53-.621,1.446,1.446,0,0,1-.162-.258.6.6,0,0,0,.45-.065.613.613,0,0,0,.17-.207c.071.03.144.059.216.088a.911.911,0,0,0,.93-.91l.27-.059c.189.206.416.128.624.429.159.229-.1.644.266.786a.481.481,0,0,0,.2.107c-.07.052-.141.1-.214.148l-.2.288c.334.339.555.979,1.138.893.788-.255.544-.694.2-1.15a1.317,1.317,0,0,0-.275-.265.7.7,0,0,0-.277-.054c.222-.214.191-.449.205-.745.032-.252.088-.441.113-.656h0a.394.394,0,0,0,.583.031,1.106,1.106,0,0,0,.341.007.91.91,0,0,0,.358-.222.78.78,0,0,0-.118-.957l-.866-.374a.567.567,0,0,1-.045.1,2.772,2.772,0,0,0-1.117-.121.719.719,0,0,0-.086.087h-.488c-.355-.014-.71-.04-1.065-.033a.467.467,0,0,0,0-.3c-.284-.206-.652-.019-.94-.2l-1.954-.007c-.182-.251-.615-.275-.929-.366l-.21.026c-.119.033-.247.053-.372.078l-.842-.047-.947.068h0a.649.649,0,0,1-.212-.1l-.576.01-.576-.291c-.633-.515-1.32-.12-1.985-.115a1.026,1.026,0,0,0-.571.4.493.493,0,0,0-.059.256c-.329-.121-.532-.454-.81-.661-.106-.17-.2-.34-.276-.486l-.346-.3a1.006,1.006,0,0,0-.536-.121,2.335,2.335,0,0,0-.826.2l-.187,0a.568.568,0,0,0-.19-.143c-.2-.036-.4-.068-.546.134-.353.328-.991.257-1.163.836-.583-.049-1.33-.535-1.481.559a.866.866,0,0,1-.2-.014,1.547,1.547,0,0,1-.059-.247,1.351,1.351,0,0,0-.85.143.679.679,0,0,0-.348-.13c-.774-.038-1.527.329-2.306.336-.982-.008-1.793-.42-2.733-.487-.394-.066-.778.123-1.173.045a10.6,10.6,0,0,0-1.5.4,1.772,1.772,0,0,0-.556.366l-.022-.008a.611.611,0,0,0-.463.186,1.753,1.753,0,0,0-.218.261,2.092,2.092,0,0,1-.2.631,1.482,1.482,0,0,1-.039.231l.041.218a.931.931,0,0,0,.045.1h-.054l-.023,0c-.068.006-.135.015-.2.023a.867.867,0,0,0-.315,0,.4.4,0,0,0,.013.272c-.032.2-.065.392-.1.588.007-.092.534.089.487.133a.435.435,0,0,0,.195-.085.96.96,0,0,0,.1.143,1.1,1.1,0,0,0,.121.08.191.191,0,0,0,.152.075c.028.011.057.022.087.03l.058.008c.006.061.012.121.017.182a.961.961,0,0,0,.232.023l.175-.135-.034-.045h.035a.593.593,0,0,0,.125.22l.174.055a2.313,2.313,0,0,0,.347-.368,1.485,1.485,0,0,0-.078.146,1.332,1.332,0,0,0-.207.754.9.9,0,0,0-.543.007,1.18,1.18,0,0,0-.221.2l-.262-.047a.188.188,0,0,0-.122.159.426.426,0,0,0-.517-.12l-1.166.5a2.844,2.844,0,0,0-1.416.647.558.558,0,0,0-.256.583l.542.366c.036.018.036.016.023.007l.065.019c-.018.007-.035.013-.053.021-.319.143-.642.281-.742.668a.059.059,0,0,1,0,.009.421.421,0,0,0-.445.009.576.576,0,0,0-.279.64c-.039.056-.077.114-.115.172a6.85,6.85,0,0,0,.1,1.057c.6.135,1.26.515,1.684-.191-.091.211-.178.443.1-.188,0-.035,0-.07,0-.1l.814-.754c.022-.021.019-.019.005-.007a.559.559,0,0,0,.145-.238,1.129,1.129,0,0,0,.158-.049c.491-.5.959-.288,1.424.043l.19-.117.128-.183a1.029,1.029,0,0,0,.042-.15.51.51,0,0,0,.206-.092l.009.021a2.753,2.753,0,0,0,.6.69.354.354,0,0,0-.065.033l-.068.193.115.168.3.273c0-.153,0-.306,0-.459a.82.82,0,0,0,.19.076.752.752,0,0,0,.169.76.872.872,0,0,0,.176.108c-.017.178.131.282.332.363.427.1.491-.171.567-.431a1.057,1.057,0,0,0,.7.473.45.45,0,0,0,.106.008.48.48,0,0,0,.034.1c.267.349.709.275,1.054.437.034,0,.068,0,.1,0a3.446,3.446,0,0,0-.111.758,2.449,2.449,0,0,0,.527,1.749,3.284,3.284,0,0,0,.473.72,1.687,1.687,0,0,0,.665.578c-.109.681.785,1.314,1.354,1.507a.4.4,0,0,0,.2-.056.635.635,0,0,0,.256.1.613.613,0,0,0,.233-.053.791.791,0,0,0,.209.3,1.078,1.078,0,0,0,1.4-.148l.111-.267a.656.656,0,0,1,.013-.252h0a1.846,1.846,0,0,0,.744-.764,1.239,1.239,0,0,0,.073-.133.111.111,0,0,0,.01-.03.418.418,0,0,0,.009-.247l.227-.348c-.094-.2-.156-.405-.232-.608.026.016.051.034.078.049a12.281,12.281,0,0,0,1.3.075.547.547,0,0,1,.513.072,1.522,1.522,0,0,0-.064.312,1.466,1.466,0,0,0,.116.693.77.77,0,0,0,.961.35l.209-.052.311.3c.065,1.686.54,2.378,1.519,2.172-.049.043.043.027.47-.15a.692.692,0,0,0,.067-.062c.413-.406.311-.959.361-1.466,0-.056,0-.112,0-.168a4.289,4.289,0,0,0,.927-.033c.349-.139.7-.277,1.06-.413a2.9,2.9,0,0,0,.041.582c.176.909,1.293,1.022,1.565,1.85.143.269-.037.653.3.854l.3-.274c.142-.139.1-.1.05-.051a7.179,7.179,0,0,1,.72-.739.629.629,0,0,1,.066-.054c.295.231.6-.025.9-.306,0,0,0-.006,0-.009m-23.417-13.838a.1.1,0,0,1,.045-.009.113.113,0,0,0,0,.013l.014,0-.059-.006m.336.139-.018-.018.021.007a.092.092,0,0,1,0,.011m2.084.349a1.51,1.51,0,0,0-.3.222c-.029.037-.057.075-.083.114a.475.475,0,0,0,.044-.107,1.853,1.853,0,0,0,.164-.217.824.824,0,0,0,.094-.366.769.769,0,0,0-.066-.2c.088-.029.177-.065.264-.1-.005.029-.01.059-.013.089a2.331,2.331,0,0,0,.011.36.87.87,0,0,0,.044.138l-.157.065m7.832,9.07-.124-.075a1.506,1.506,0,0,0-.206-.09.37.37,0,0,1,.153-.115h0a.718.718,0,0,0,.157.208l.037.016c-.006.018-.011.037-.017.055" transform="translate(-5227.087 -308.928)" fill="#cbe7e8"/>
          <path id="Path_1031403" data-name="Path 1031403" d="M5361.5,388.843a.6.6,0,0,0-.255-.033.5.5,0,0,0-.024.27l.294-.037c0-.067-.01-.133-.016-.2" transform="translate(-5036.438 -365.314)" fill="#f0f7ff"/>
          <path id="Path_1031404" data-name="Path 1031404" d="M5643.221,479.332l-.034-.361a1.945,1.945,0,0,0-.529-.082,1.094,1.094,0,0,1,.041.235q.617.629.522.209" transform="translate(-5300.846 -449.941)" fill="#f0f7ff"/>
          <path id="Path_1031405" data-name="Path 1031405" d="M2355.96,1464.985H2328.4a1.9,1.9,0,0,1-1.9-1.9v-8.2a1.9,1.9,0,0,1,1.9-1.9h27.565a1.9,1.9,0,0,1,1.9,1.9v8.2a1.9,1.9,0,0,1-1.9,1.9" transform="translate(-2185.418 -1365.089)" fill="#b9dcfc"/>
          <path id="Path_1031406" data-name="Path 1031406" d="M1552.96,2053.985h-27.565a1.9,1.9,0,0,1-1.895-1.9v-8.2a1.9,1.9,0,0,1,1.895-1.9h27.565a1.9,1.9,0,0,1,1.9,1.9v8.2a1.9,1.9,0,0,1-1.9,1.9" transform="translate(-1431.024 -1918.436)" fill="#c2d6f9"/>
          <path id="Path_1031407" data-name="Path 1031407" d="M6570.459,542.814h-25.083a3.136,3.136,0,0,1-3.136-3.136V526.117a3.136,3.136,0,0,1,3.136-3.136h25.083a3.136,3.136,0,0,1,3.136,3.136v13.561a3.136,3.136,0,0,1-3.136,3.136" transform="translate(-6145.976 -491.365)" fill="#b0e0e8"/>
          <path id="Path_1031408" data-name="Path 1031408" d="M830.018,1786.488a21.728,21.728,0,0,0-10.672,3.6,12.545,12.545,0,0,0-3.357,3.374,36.719,36.719,0,0,0-2.167,4.726,30.2,30.2,0,0,0-1.368,3.033c-.007-.066-.011-.132-.017-.2a.47.47,0,0,0,.059-.5l-.122-.228c-.029-.345-.06-.689-.09-1.034.128,0-.232-3.857-.011-5.468a6.625,6.625,0,0,1,.667-2.238,5.933,5.933,0,0,1,1.744-1.78q2.539-1.927,5.082-3.852c1.443-1.094,2.889-2.188,4.447-3.211a32.389,32.389,0,0,1,5.8-3.014c.321-.129.518-.457.417-.694a.628.628,0,0,0-.774-.251A39.382,39.382,0,0,0,819.215,1785q-2.64,2-5.274,4.013a12.8,12.8,0,0,0-1.418,1.224c.3-1.28,1.512-2.052,2.4-3.212a15.464,15.464,0,0,1,2.886-2.173c.989-.757,3.591-4.965,4.52-5.958a.4.4,0,0,0-.123-.688.951.951,0,0,0-.962.263c-.86.86-4.312,4.232-5.331,5.016a13.122,13.122,0,0,0-4.023,4.873c.013-1.034.038-2.068.088-3.1.091-1.916.238-3.833.458-5.745.145.035.639-4.285.689-4.538.044-.222.094-.443.142-.664-.808-.03-1.617-.059-2.426-.07a16.865,16.865,0,0,1,.734,1.925,70.587,70.587,0,0,0-.945,8.144,103.85,103.85,0,0,0-.128,10.454c.008.206.027.412.036.618-.516-.844-1.254-1.613-1.792-2.431-3.736-5.675-13-7.685-15.12-7.272-.64.125-1.022,1-.193,1.12a28.06,28.06,0,0,1,5.005,1.215c1.354.8,2.581,1.712,3.847,2.569a49.637,49.637,0,0,1,4.109,2.854,10.178,10.178,0,0,1,2.314,3.331l2.242,4.184c.067.672.12,1.346.2,2.018-2.614-4.576-6.044-9.387-13.347-11.214a18.775,18.775,0,0,0-6.317-.5.938.938,0,0,0-.816.555.438.438,0,0,0,.435.576,13.248,13.248,0,0,1,5.434,1.624c1.525.743,3.037,1.5,4.489,2.307,2.847,1.577,5.514,3.435,6.908,5.757.856,1.426,1.3,2.943,2.581,4.246.249.253.816.093,1.05-.078.006,0,.009-.01.015-.015.007.046.012.092.019.138.042.276.444.423.822.321.41-.11.679-.431.635-.72-.1-.681-.194-1.363-.284-2.044.021,0,.043,0,.064-.007a.676.676,0,0,0,.572-.649,3.961,3.961,0,0,1,0-.506q2.572-3.208,5.408-6.318a27,27,0,0,1,7.567-6.382c1.681-.869,3.892-1.526,4.263-3.08.062-.26-.212-.523-.632-.492" transform="translate(-742.538 -1666.887)" fill="#61aea7"/>
          <path id="Path_1031409" data-name="Path 1031409" d="M1311.35,1403.843l-.075.026-.015.005h0c.087-.028.11-.037.091-.032" transform="translate(-1231.63 -1318.906)" fill="#f0f"/>
          <path id="Path_1031410" data-name="Path 1031410" d="M933.882,1361.12a4.577,4.577,0,0,0-2.539-3.856,5.608,5.608,0,0,0-4.43.294c-.576.252-1.108.558-1.648.84-.252.126-.5.258-.765.372q-.175.081-.351.144a.1.1,0,0,1-.054.018c-.1.03-.189.066-.288.09-.054.012-.117.024-.171.042-.135.006-.279.03-.423.036H923.2c-.054-.006-.117-.006-.171-.012a1.261,1.261,0,0,1-.45-.1,1.978,1.978,0,0,1-.775-.462,7.751,7.751,0,0,1-.72-.719,5.454,5.454,0,0,0-1.918-1.463,4.094,4.094,0,0,0-3.17-.042,3.76,3.76,0,0,0-1.855,1.8c-.4.7-.765,1.4-1.18,2.087,0,0-.027.042-.054.078s-.1.144-.1.144a4.306,4.306,0,0,1-.306.366.266.266,0,0,0-.063.066c-.009,0-.117.108-.144.126-.054.042-.108.078-.162.12-.018.006-.009.006-.027.012s-.063.036-.09.054c-.045.012-.117.042-.135.048a.077.077,0,0,1-.036.006.651.651,0,0,0-.261.024,1.139,1.139,0,0,1-.252-.036h-.027a.577.577,0,0,0-.072-.03c-.081-.03-.162-.066-.243-.1a1.207,1.207,0,0,1-.153-.114,6.909,6.909,0,0,1-1.144-1.355,3.941,3.941,0,0,0-2.242-1.379,3.514,3.514,0,0,0-2.809.69,3.34,3.34,0,0,0-1.117,2.1,11.131,11.131,0,0,0,.117,4.431,20.067,20.067,0,0,0,4.61,8.335c1.126,1.313,2.359,2.584,3.656,3.826.639.618,1.3,1.223,1.954,1.835a14.3,14.3,0,0,0,1.54,1.331,2.155,2.155,0,0,0,.3.21,4.318,4.318,0,0,0,1.729.654,3.805,3.805,0,0,0,.982.018,1.567,1.567,0,0,0,.873-.378c.1-.042.189-.084.288-.126.477-.216.937-.444,1.4-.684.945-.51,1.846-1.061,2.692-1.631a29.126,29.126,0,0,0,3.728-2.968,21.886,21.886,0,0,0,5.07-6.848,14.658,14.658,0,0,0,1.423-7.9" transform="translate(-848.419 -1273.961)" fill="#8ecdde"/>
          <path id="Path_1031411" data-name="Path 1031411" d="M1172.651,1447.164c-.459.24-.919.468-1.4.683.063-.528.117-1.055.153-1.583.135-2,.1-4,.09-6q-.04-6.233-.072-12.472a.781.781,0,0,1,.559-.761c.315-.1.729.036.729.342q.068,6.935.117,13.869a54.2,54.2,0,0,1-.18,5.924" transform="translate(-1100.101 -1340.66)" fill="#d1e6a0"/>
          <path id="Path_1031412" data-name="Path 1031412" d="M1034.252,1471.334a4.319,4.319,0,0,1-1.729-.654,2.147,2.147,0,0,1-.3-.21,68.09,68.09,0,0,1-2.774-6.578,26.456,26.456,0,0,1-1.594-11.783c.081-.653,1.387-.953,1.306-.126a22.882,22.882,0,0,0,.333,6.554,48.451,48.451,0,0,0,4.088,11.363c.225.474.45.953.666,1.433" transform="translate(-965.241 -1363.661)" fill="#d1e6a0"/>
          <path id="Path_1031413" data-name="Path 1031413" d="M913.618,2230.432a4.437,4.437,0,0,0-1.957-.738,30.261,30.261,0,0,0-4.627-.27q-1.234-.018-2.469.022c-.16.005-.319.012-.479.016.271-.007-.058-.022-.2-.03l-.054-.021-.027-.013c-.01-.01-.016-.017-.032-.031s-.04-.034-.053-.044c-.04-.06-.083-.12-.118-.182-.047-.084-.075-.173-.123-.256,0-.023-.008-.044-.011-.053-.051-.168-.087-.344-.128-.521.016,0,.029.012.045.016a2,2,0,0,0,1.3-.157,2.218,2.218,0,0,0,1.308-1.584.989.989,0,0,0-1-1.086,21.64,21.64,0,0,0-4.857.441,29.368,29.368,0,0,1-4.653.142,2.067,2.067,0,0,0-1.979.966c-.249.563-.057,1.115.829,1.312.078.017.157.033.235.049-.09.256-.155.518-.231.774l-.092.308c-.484.061-.968.12-1.456.168-1.583.157-3.18.249-4.779.275q-.567.01-1.135.008l-.476,0-.135,0-.349-.008a3.248,3.248,0,0,0-.774.074,1.7,1.7,0,0,0-1.066-.037,1.51,1.51,0,0,0-1.255,1.424c.041,2.174.2,4.347.255,6.521.026.979-.118,2.154.961,2.935a7.9,7.9,0,0,0,3.949.93c3.172.237,6.353.43,9.548.425,1.559,0,3.119-.058,4.666-.19q1.179-.1,2.343-.262.541-.075,1.078-.165c.163-.027.326-.056.489-.085l.548-.1.1-.018a13.981,13.981,0,0,1,2.219-.25h.028l.048,0c.082.005.165.01.247.018.167.015.331.041.5.062a5.1,5.1,0,0,0,1.567-.02,3.226,3.226,0,0,0,2.754-2.649,24.6,24.6,0,0,0,.118-3.077c.03-1.081.077-2.162.087-3.243a2.025,2.025,0,0,0-.716-1.793" transform="translate(-829.134 -2090.786)" fill="#fafffb"/>
          <path id="Path_1031414" data-name="Path 1031414" d="M917.894,2309.194c-3.487.55-6.753,1.567-10.222,2.153a25.444,25.444,0,0,1-5.179.406,52.242,52.242,0,0,1-5.752-.709c-1.083-.162-2.167-.326-3.251-.486-.343-.051-.757-.088-1.162-.149a8.385,8.385,0,0,1-1.057-.566.693.693,0,0,0-.645-.038c-.368,0-.779.43-.521.679a1.516,1.516,0,0,0,.134.094c.016.065.03.131.046.2.052.219.336.332.651.254a.72.72,0,0,0,.136-.056,16.268,16.268,0,0,0,4.12,1.37,34.021,34.021,0,0,0,5.826.672,49.547,49.547,0,0,0,12-1.185c1.033-.223,2.076-.458,3.067-.754a4.291,4.291,0,0,0,2.2-1.246c.155-.205.179-.726-.4-.635" transform="translate(-835.893 -2169.447)" fill="#b9e6e3"/>
          <path id="Path_1031415" data-name="Path 1031415" d="M970.629,1896.33q-.229-.686-.515-1.364a18.642,18.642,0,0,0-1.4-2.669,16.435,16.435,0,0,0-3.983-4.525,10.687,10.687,0,0,0-3.227-1.662c-.583-.183-1.225.543-.648.735a11.873,11.873,0,0,1,5.861,4.566,19.751,19.751,0,0,1,1.964,3.226,16.538,16.538,0,0,1,.7,1.686,10.278,10.278,0,0,0,.56,1.677c.218.393,1,.016,1-.274a4.334,4.334,0,0,0-.317-1.4" transform="translate(-902.225 -1771.954)" fill="#61aea7"/>
          <path id="Path_1031416" data-name="Path 1031416" d="M773.429,1656.489a13.7,13.7,0,0,0-1.9-3.958,35.518,35.518,0,0,0-6.646-6.644c-1.045-.864-2.314-2.2-4.169-1.907a2.907,2.907,0,0,0-.477.1,2.483,2.483,0,0,0-.648.282,2.14,2.14,0,0,0-1,1.661,10,10,0,0,0-.072,1.943,11.449,11.449,0,0,0,3.224,6.986,14.866,14.866,0,0,0,4.052,3.142,12.585,12.585,0,0,0,2.7.935,14.329,14.329,0,0,1,1.99.57.973.973,0,0,0,1.08.426,1.188,1.188,0,0,0,.324-.024,1.168,1.168,0,0,0,.315-.1l.018-.012a.9.9,0,0,0,.252-.138l.018-.012c1.4-.708,1.252-2.2.936-3.256" transform="translate(-712.33 -1544.471)" fill="#8ecdde"/>
          <path id="Path_1031417" data-name="Path 1031417" d="M786.279,1660.537l-.018.012a.756.756,0,0,1-.315.1.623.623,0,0,1-.387-.078,40.058,40.058,0,0,1-4.62-3.16,29.27,29.27,0,0,1-6.2-6.6,6.876,6.876,0,0,1-1.27-4.119,15.129,15.129,0,0,1,.18-1.685,2.481,2.481,0,0,1,.648-.282,2.906,2.906,0,0,1,.477-.1,16.611,16.611,0,0,0-.2,2.207,6.989,6.989,0,0,0,1.54,3.987,27.153,27.153,0,0,0,2.854,3.37,37.028,37.028,0,0,0,7.483,5.721c.279.168.117.468-.171.629" transform="translate(-726.386 -1545.113)" fill="#d1e6a0"/>
          <path id="Path_1031418" data-name="Path 1031418" d="M1448.355,1698.149a1,1,0,0,0-.237-.037c-.029,0-.06-.005-.089,0l-.028-.011a.6.6,0,0,1-.138-.159c-.02-.02-.025-.035-.035-.045a.281.281,0,0,0-.015-.068.727.727,0,0,1-.033-.162,1.217,1.217,0,0,1,.118-.733,2.18,2.18,0,0,0,.24-1.774,1.587,1.587,0,0,0-.8-.77,2.744,2.744,0,0,0-.919-.243,12.825,12.825,0,0,0-4.351.645A42.631,42.631,0,0,0,1431,1699.7c-1.884,1.154-3.651,2.386-5.385,3.643a.485.485,0,0,0-.224.537.641.641,0,0,0,.475.409.929.929,0,0,0,.169.029l.007,0a.306.306,0,0,0,.1.021,1.578,1.578,0,0,0,1.042.124c5.831-1.079,12.357-.854,17.679-3.08a12.81,12.81,0,0,0,3.765-2.3c.353-.326.3-.8-.277-.937" transform="translate(-1338.839 -1591.607)" fill="#8ecdde"/>
          <path id="Path_1031419" data-name="Path 1031419" d="M1426.328,1704.788l.012.008a39.283,39.283,0,0,1,6.387-2.072,15.372,15.372,0,0,1,3.037,0,15.536,15.536,0,0,0,3.79-.058,16.237,16.237,0,0,0,3.814-1.27,39.1,39.1,0,0,0,3.7-1.83q.809-.464,1.581-.953a.962.962,0,0,0-.238-.033.306.306,0,0,0-.088,0l-.025-.017a.439.439,0,0,1-.138-.159c-.025-.017-.025-.033-.038-.042a.183.183,0,0,0-.013-.067.434.434,0,0,1-.038-.167,34.822,34.822,0,0,1-4.844,2.6,16.316,16.316,0,0,1-3.576,1.278,13.474,13.474,0,0,1-3.576.067l-.828-.05a26,26,0,0,0,4.429-1.755,43.5,43.5,0,0,0,4.342-2.657,26.575,26.575,0,0,0,3.614-2.757,2.787,2.787,0,0,0-.916-.242,22.805,22.805,0,0,1-3.237,2.482c-1.355.9-2.71,1.822-4.216,2.624a33.628,33.628,0,0,1-6.7,2.4c-.163.025-.351.042-.515.075a1.007,1.007,0,0,0-.364.167c-.54.142-1.092.292-1.631.451a28.5,28.5,0,0,0-4.367,1.546Z" transform="translate(-1339.133 -1592.075)" fill="#d1e6a0"/>
          <path id="Path_1031420" data-name="Path 1031420" d="M5968.446,1325.188a9.331,9.331,0,0,0-2.979-3.806,4.861,4.861,0,0,0-4.125-1.348c-3.587.668-5.341,4.749-7.053,7.526-1.147,1.863-2.285,3.733-3.444,5.589-.9,1.438-2.193,3.23-3.98,3.057a68.973,68.973,0,0,1,4.755-11.036,28.574,28.574,0,0,1,3.858-5.344c1.3-1.391,2.71-2.667,3.9-4.152a9.415,9.415,0,0,0,2.271-5.047,7.712,7.712,0,0,0-1.687-5.281,11.47,11.47,0,0,0-5.153-3.526c-1.792-.671-3.923-1.073-5.562.18-1.49,1.139-1.9,3.066-2.191,4.814-.412,2.465-.8,4.934-1.2,7.4q-1.228,7.585-2.456,15.17c-.2,1.213-.349,2.443-.605,3.645-.234,1.1-.666,2.406-1.813,2.853-1.952.761-2.635-1.83-2.814-3.212a75.881,75.881,0,0,1-.118-15c.184-2.58.46-5.153.813-7.715.335-2.437.846-4.848,1.174-7.283.265-1.968.068-4.225-1.544-5.6-1.668-1.424-3.937-.893-5.889-.533-2.226.411-4.48.75-6.683,1.278a12.684,12.684,0,0,0-4.868,2.108c-3.531,2.729-3,7.261-1.75,11.041,2.932,8.843,10.1,15.247,15.584,22.477.693.913,1.38,1.839,2,2.8.555.859,1.243,2.038.762,3.074-.887,1.912-4.213-1.006-5.135-1.782-2.869-2.411-5.108-5.481-7.4-8.417a38.868,38.868,0,0,0-7.65-7.958c-1.44-1.034-3.215-2.149-5.07-1.878a3.551,3.551,0,0,0-2.856,3.861c.134,4.122,4.277,6.906,7.291,9.043,3.5,2.486,11.255,7.144,11.657,7.212,1.266.214,4.363,4.194,5.287,5.113a22.786,22.786,0,0,0,6.251,4.428,7.16,7.16,0,0,0,3.381,1.082c1.288-.124,2-1.525,2.688-2.449,1.845-2.471,8.379-4.245,9.386-3.767,2.377,1.126,4.679-1.369,4.286-3.728-.415-2.486-2.548-3.333-4.776-3.5l7.481-4.56a41.679,41.679,0,0,0,4.7-2.96,3.5,3.5,0,0,0,1.271-3.869" transform="translate(-5551.574 -1217.722)" fill="#61aea7"/>
          <path id="Path_1031421" data-name="Path 1031421" d="M6139.373,1357.586c-1.6-.847-3.712-.236-5.353.191a8.531,8.531,0,0,0-4.576,2.526,6.658,6.658,0,0,0-1.07,5.6,36.145,36.145,0,0,0,1.838,6.112c1.756,4.617,12.519,20.321,12.462,19.327-.288-5.071-2.919-17.161-2.461-22.22.213-2.353.622-4.68.859-7.028.169-1.678-.041-3.636-1.7-4.513" transform="translate(-5756.994 -1275.051)" fill="#d1e6a0"/>
          <path id="Path_1031422" data-name="Path 1031422" d="M5964.338,1724.98c-.386-.184-.768-.379-1.147-.578a27.319,27.319,0,0,1-4.962-4.854,26.44,26.44,0,0,1-2.32-3.457,27.258,27.258,0,0,0-1.753-3.4,1.793,1.793,0,0,0-2.572-.495c-.974.737-2.366,3.34-1.9,4.383,1.043,2.329,4.327,3.179,6.166,4.907a29.183,29.183,0,0,0,6.32,4.506q.463.349.938.681c.346.24,10.164,7.865,10.427,7.624.624-.3-8.479-8.974-9.2-9.316" transform="translate(-5589.2 -1608.261)" fill="#d1e6a0"/>
          <path id="Path_1031423" data-name="Path 1031423" d="M6494.62,1443.6a2.568,2.568,0,0,0-3.185-1.045,4.594,4.594,0,0,0-2.485,2.972c-.556,1.574-.972,3.208-1.449,4.806l-3.565,11.937a.857.857,0,0,0,.075.738c-.038.256-2.886,12.57-2.907,12.831-.1,1.222,4.448-11,4.538-12.1.527-6.479,6.744-10.438,9.045-16.181a4.339,4.339,0,0,0-.066-3.956" transform="translate(-6088.538 -1355.096)" fill="#d1e6a0"/>
          <path id="Path_1031424" data-name="Path 1031424" d="M6568.865,1743.306c-2.063-2.359-5.136,1.429-6.354,2.847a68.42,68.42,0,0,0-5.579,7.861c-.312.489-4.291,5.882-3.96,6.111.228.459,4.921-4.245,5.384-4.792,1.992-2.352,3.93-5.256,6.563-6.945,1.136-.729,2.64-.944,3.6-1.929a2.389,2.389,0,0,0,.345-3.152" transform="translate(-6156.039 -1637.112)" fill="#d1e6a0"/>
          <path id="Path_1031425" data-name="Path 1031425" d="M6553.377,1992.1a4.025,4.025,0,0,0-2.585,1.935c-.2.274-3.176,3.648-3.094,3.958-.081.67,3.4-1.687,4.155-2.022l.687-.3a7.283,7.283,0,0,1,.789.213,2.623,2.623,0,0,0,1.3.041,1.817,1.817,0,0,0,1.11-2.36,2.122,2.122,0,0,0-2.363-1.461" transform="translate(-6151.102 -1871.536)" fill="#d1e6a0"/>
          <path id="Path_1031426" data-name="Path 1031426" d="M6133.436,2177.475a40.012,40.012,0,0,0,.584,5.331l.006.026A2.853,2.853,0,0,0,6136.8,2185h25c2.254-.969,1.857-3.531,1.85-5.088-.008-1.938-.085-3.878-.129-5.815-.042-1.809-.021-3.634-.155-5.439a6.638,6.638,0,0,0-1.875-4.5,8.467,8.467,0,0,0-4.614-1.92,62.166,62.166,0,0,0-6.323-.566,69.117,69.117,0,0,0-13.053.683,2.223,2.223,0,0,0-1.6,1.006,1.113,1.113,0,0,1-.515.434,4.474,4.474,0,0,0-2.547,2.739c-.512,1.6-.143,3.4.015,5.025q.286,2.955.572,5.91" transform="translate(-5761.118 -2030.811)" fill="#75b6cc"/>
          <path id="Path_1031427" data-name="Path 1031427" d="M6092.588,2126.117a91.357,91.357,0,0,0-18.328-.041c-3.476.31-6.937.766-10.384,1.31-1.331.21-3.061.228-4.125,1.16a2.183,2.183,0,0,0-.349,3.091.737.737,0,0,0,.576.257c.9,1.62,3.09,2.055,4.928,2.028,3.112-.045,6.223-.166,9.334-.249l9.616-.259c3.075-.083,6.194-.021,9.261-.264,1.865-.148,4.107-.919,4.275-3.1.208-2.71-2.646-3.685-4.8-3.928" transform="translate(-5691.897 -1997.009)" fill="#8ecdde"/>
          <path id="Path_1031428" data-name="Path 1031428" d="M3070.369,361H3024.5a5.015,5.015,0,0,0-5,5v14.817a5.015,5.015,0,0,0,5,5h28.413l13.862,9.261,1.271-9.7c6.174.5,7.324-3.807,7.324-7.038V366a5.015,5.015,0,0,0-5-5" transform="translate(-2836.47 -339.189)" fill="#008d8e"/>
          <path id="Path_1031429" data-name="Path 1031429" d="M3234.77,535.135a2.135,2.135,0,1,1-2.135-2.135,2.135,2.135,0,0,1,2.135,2.135" transform="translate(-3034.698 -500.778)" fill="#cbe7e8"/>
          <path id="Path_1031430" data-name="Path 1031430" d="M3461.5,535.135a2.135,2.135,0,1,1-2.135-2.135,2.135,2.135,0,0,1,2.135,2.135" transform="translate(-3247.704 -500.778)" fill="#cbe7e8"/>
          <path id="Path_1031431" data-name="Path 1031431" d="M3688.231,535.135A2.135,2.135,0,1,1,3686.1,533a2.135,2.135,0,0,1,2.135,2.135" transform="translate(-3460.71 -500.778)" fill="#cbe7e8"/>
          <path id="Path_1031432" data-name="Path 1031432" d="M4210.177,671.265c-.033-6.641-2.746-12.436-6.106-15.746a11.011,11.011,0,0,0-1.345-1.189,1.254,1.254,0,0,0-1.436-.176,3.1,3.1,0,0,0-1.2,1.715,9.622,9.622,0,0,0-.345,1.465.28.28,0,0,0-.153.026c-.292.13-.442.564-.5,1.02-.222,1.635-.2,3.384-.293,5.053s-.219,3.352-.37,5.02-.308,3.328-.5,4.983q-.144,1.241-.308,2.475c0,.039-.045.331-.05.367-.022.162-.045.324-.068.486-.062.438-.128.876-.191,1.314-.111.769-.1,1.73.429,2.055.5.306,1.041-.311,1.283-1.015.018-.054.038-.106.058-.159.016-.03.031-.061.048-.09.058-.068.158-.2.167-.209l.022-.027.026-.015c.084-.052.165-.11.249-.159.017,0,.1-.037.149-.05a2.336,2.336,0,0,1,.258-.042h.029c.034,0,.068.009.1.017a1.7,1.7,0,0,1,.315.1c.031.013.172.091.172.085a2.924,2.924,0,0,1,.461.408c.072.078.143.162.211.249.006.014.1.151.125.193a6.327,6.327,0,0,1,.41.826.618.618,0,0,0,.859.385,1.91,1.91,0,0,0,.851-1.119c.011-.029.025-.059.039-.089.053-.1.1-.2.158-.3.006-.011.013-.021.02-.031.081-.077.16-.219.234-.3.019-.021.068-.075.113-.122.036-.029.155-.134.19-.16a3.089,3.089,0,0,1,.266-.174l.117-.065.067-.039a4.6,4.6,0,0,1,.46-.1c.025,0,.145-.014.2-.019h.02c.068.009.135.018.2.031a2.85,2.85,0,0,1,.519.178.582.582,0,0,1,.063.034l.032.022c.121.087.239.189.36.278a1.3,1.3,0,0,0,1.716.1,4.31,4.31,0,0,0,1.264-2.083,18.182,18.182,0,0,0,.61-5.408" transform="translate(-3942.926 -614.453)" fill="#091d5b"/>
          <path id="Path_1031433" data-name="Path 1031433" d="M4404.417,997.437c0-.009,0-.019-.008-.028,0,.008,0,.018.008.029h0" transform="translate(-4137.549 -937.075)" fill="#091d5b"/>
          <path id="Path_1031434" data-name="Path 1031434" d="M4405.857,1042.673h0c0-.006,0-.011,0-.017a.668.668,0,0,0-.018.067c0-.016.01-.032.015-.049" transform="translate(-4138.896 -979.583)" fill="#091d5b"/>
          <path id="Path_1031435" data-name="Path 1031435" d="M2835.335,1766.566a1.748,1.748,0,0,0,1.607.522,1.205,1.205,0,0,0,.9.288c1.14.014,2.443-.221,3.584-.252a15.109,15.109,0,0,0,3.1.272,9.45,9.45,0,0,1-.844.761c-.455.422-.91.844-1.369,1.262-.569.518-.249,1.958.671,1.507,2.277-1.115,4.654-2.488,7.08-3.788,1.729-.788,4.7-3.042,6.661-2.731.611.1,7.026,1.431,11.21,2.131a14.815,14.815,0,0,0,3.568.387,3.377,3.377,0,0,0,.891-.6c.445.022.458-.578.651-1.074,1.355-3.469-.061-5.046-1.214-5.793a7.438,7.438,0,0,0-.881-.476,26.677,26.677,0,0,0-8.45-2.538c-2.887-.326-6.052-.779-8.782.476-1.449.666-2.746,1.63-4.148,2.386a40.912,40.912,0,0,1-4.111,1.916c-.13.041-.258.079-.387.119a13.956,13.956,0,0,1-3.93,1.73c-1.006.33-3.569-.849-4.729-.177-.065.038,1.624,1.347,1.553,1.373l.4.033a7.438,7.438,0,0,1-2.437.885c-.563.081-1.038.9-.591,1.383" transform="translate(-2663.287 -1649.831)" fill="#ffa3a6"/>
          <path id="Path_1031436" data-name="Path 1031436" d="M4103.357,902.3c-3.313-3.351.114-21.2,0-21.376-2.348-3.646-12.933,2.73-12.954,3.171-.3,6.287-5.651,16.316-6.353,16.826-1.783,1.294-11.254,1.837-13.069,2.972-1.5.938-3.257,7.707-2.872,9.376.451,1.957-6.324,11.433-2.833,16.734,1.927,2.926,18.463,3.687,22.4,3.928,3.1.19,6.371.323,9.329-.889,3.189-1.307,5.132-4.33,5.9-7.966.85-4.011,14.876-11.072,11.256-20.381-.233-.6-7.5.95-10.807-2.393" transform="translate(-3818.002 -826.586)" fill="#ffa3a6"/>
          <path id="Path_1031437" data-name="Path 1031437" d="M4279.342,557.908c1.941,2.942,3.939,5.042,5.043,5.335a9.774,9.774,0,0,0,1.382.261,14.371,14.371,0,0,0,9.729-2.91,15.377,15.377,0,0,0,4.39-4.74c.088-.153.17-.306.249-.461q.225-.439.4-.884a26.273,26.273,0,0,0,1.833-6.4q.046-.347.08-.7a24.742,24.742,0,0,0,.07-3.415c-.152-3.588-3.231-9.391-6.2-11.772-2.357-1.889-6.032-1.925-9.7-.908a22.444,22.444,0,0,0-10.326,6.1,10.378,10.378,0,0,0-.881,1.154,8.349,8.349,0,0,0-1.259,3.885c-.43,4.91,2.323,11.1,5.194,15.453" transform="translate(-4015.131 -498.567)" fill="#ffa3a6"/>
          <path id="Path_1031438" data-name="Path 1031438" d="M3369.152,1288.689q1.487,1.355,3.017,2.663c5.8,4.93,12.359,9.518,19.733,11.7,2.5.741,5.636.905,7.7-.811a1.025,1.025,0,0,1,.163-.112,20.77,20.77,0,0,0,2.108-1.333,44.522,44.522,0,0,0,5.628-4.759,53.246,53.246,0,0,0,5.036-5.841q1.591-2.128,3-4.386a1,1,0,0,1,1.786.208q.171.5.346,1h0c.236.682.452,1.372.724,2.039,8.6,21.06,1.228,26.841-.147,31.89-.151.553.419,1.056.993,1.056h57.413a1,1,0,0,0,.905-1.409c-3.3-7.215-16.232-23.04-17.309-53.651-.047-1.346.416-4.061.741-6.99.351-3.163.715-6.571.839-8.759a15.012,15.012,0,0,1,.523-2.774,6.693,6.693,0,0,0-1.115-.506c-1.2-.5-20.372,7.188-26.287,4.9-3.9-1.509-6.7-5.455-7.541-6.77a.993.993,0,0,0-.847-.458,41.365,41.365,0,0,0-7.047.993c-9.084,3.378-19.936,26.34-22.518,33.171-.406,1.073-2.179,8.414-11.329,2.825-3.428-2.094-7.756-2.26-11.64-3.255-.21-.054-.266-.084-.562.1a.6.6,0,0,0-.241.3l-.052.137a24.341,24.341,0,0,1-1.289,3.1,33.049,33.049,0,0,1-1.827,2.888c-.253.37-.516.734-.782,1.095q-.129.174-.258.347a1.04,1.04,0,0,0,.129,1.394" transform="translate(-3164.64 -1170.239)" fill="#3267b5"/>
          <path id="Path_1031439" data-name="Path 1031439" d="M4560.328,1714.943c-3.817.972,12.21,17.859-12.473,23.187-7.816,1.687,12.4,5.542,16.162,3.511s13.646-7.525,11.454-12.57-15.143-14.128-15.143-14.128" transform="translate(-4270.639 -1611.176)" fill="#214493"/>
          <path id="Path_1031440" data-name="Path 1031440" d="M4045.2,2157.675a7.132,7.132,0,0,0,1.967-1.521l-.375.087c.057-.044-1.868-.746-1.82-.8.863-.952,3.548-.624,4.371-1.219,1.1-.8,7.77-6.867,12.022-9.962,5.863-4.268,11.323-3.612,14.18-3.941,5.695-.656,4.222,1.885,3.571,6.574-.06.428.086.895-.13,1.092-.153.139.525,1.841.422,2.02-1.222,2.106-3.126-2.917-6.723-1.371-8.414,3.616-7.486,2.557-10,3.351a4.829,4.829,0,0,0-2.06,1.294c-.727.772-1.4,1.555-1.947,2.055-1.836,1.9-10.043,3.466-11.089,3.786a1.158,1.158,0,0,1-.905,0,1.676,1.676,0,0,1-1.619-.007.861.861,0,0,1,.135-1.436" transform="translate(-3799.644 -2010.708)" fill="#ffa3a6"/>
          <path id="Path_1031441" data-name="Path 1031441" d="M4367.036,1758.036c-.009-.005-.012,0-.014,0h0l.014,0Z" transform="translate(-4102.425 -1651.657)" fill="#7f95b9"/>
          <path id="Path_1031442" data-name="Path 1031442" d="M4367.554,1760.517h0" transform="translate(-4102.925 -1653.992)" fill="#7f95b9"/>
          <path id="Path_1031443" data-name="Path 1031443" d="M4367.246,1758.107h0c.016.01.012.012,0,0" transform="translate(-4102.634 -1651.727)" fill="#7f95b9"/>
          <path id="Path_1031444" data-name="Path 1031444" d="M4367.4,1760.5h0" transform="translate(-4102.776 -1653.978)" fill="#7f95b9"/>
          <path id="Path_1031445" data-name="Path 1031445" d="M4367.26,1758.109h0" transform="translate(-4102.647 -1651.729)" fill="#7f95b9"/>
          <path id="Path_1031446" data-name="Path 1031446" d="M4366.585,1758.076h0" transform="translate(-4102.014 -1651.699)" fill="#7f95b9"/>
          <path id="Path_1031447" data-name="Path 1031447" d="M4570.375,1275.254a8.433,8.433,0,0,0-5.868.57c-4.145,1.921-6.131,6.3-6.354,10.68a31.218,31.218,0,0,0,3.573,15.09c12.1,24.882.731,21.859-1.377,22.246a93.059,93.059,0,0,0-11.263,2.516c-.22.068-1.3.479-1.523.547,0,.01.514.486.518.5a8.909,8.909,0,0,1,.313,1.232,19.463,19.463,0,0,1,.415,2.752c.063,1.138-.1,4.5-.158,5.638-.043.906,3.149,1.106,4.788,1.36,7.519,1.164,15.514,1.634,22.939-.368,1.151-.31,6.494-1.595,7.675-2.758,1.7-1.677,2.416-4.161,2.825-6.447a44.454,44.454,0,0,0,.688-7.338c.11-9.752-2.707-19.259-6.142-28.293-.864-2.273-1.776-4.528-2.708-6.773a46.233,46.233,0,0,0-3.163-6.773,9.5,9.5,0,0,0-5.179-4.375" transform="translate(-4272.038 -1197.827)" fill="#3267b5"/>
          <path id="Path_1031448" data-name="Path 1031448" d="M4196.7,484.73c-5.942-16.286-30.086-20.216-40.752-4.944-3.124,4.472-2.025,13.508.288,12.945.932-.237,1.106-1.106,1.125-1.869a16.783,16.783,0,0,1,.482-2.311,8.667,8.667,0,0,0,1.334,2.6c.951,1.016,2.572-.362,2.239-1.411a18.664,18.664,0,0,1-.286-5.13,23.127,23.127,0,0,0,2.152,4.521,1.322,1.322,0,0,0,1.648.248c1.429-.685,1.012-2.079.9-3.285,1.1,1.951,2.2,3.905,3.267,5.872.256.473,1.021.471,1.455.313,2.1-.629,1.2-4.95,1.073-6.577a16.609,16.609,0,0,1,1.649,2.569c.792,2.256.45,4.756.708,7.1a12.757,12.757,0,0,1-.017,3.945c-.122,1.476-.27,2.949-.419,4.422a1.14,1.14,0,0,0,1.023,1.129c1.535.261,3.216-2.609,4.3-3.519a6.979,6.979,0,0,1,3.387,4.367c.185.744,1.122.919,1.79.676,1.938-.691,1.17-2.812,1.646-4.255.354-1.73,2.092-2.336,3.461-.913-.153-.15-.172-.169-.06-.056a10.664,10.664,0,0,1,1.5,2.1,1.42,1.42,0,0,0,1.651.355c1.135-.379,1.4-1.5,1.633-2.455.655.049-2.787-4.8,2.583-2.41,3.992,1.774,1.632-11.6.241-14.019" transform="translate(-3902.319 -441.771)" fill="#091d5b"/>
          <path id="Path_1031449" data-name="Path 1031449" d="M2413.362,1948.6h51.606a3.482,3.482,0,0,0,2.921-5.377l-17.105-26.355a3.481,3.481,0,0,0-2.92-1.586h-51.607a3.481,3.481,0,0,0-2.92,5.377l17.1,26.354a3.482,3.482,0,0,0,2.92,1.586" transform="translate(-2247.676 -1799.391)" fill="#cbd8df"/>
          <path id="Path_1031450" data-name="Path 1031450" d="M2413.362,1948.6h51.606a3.482,3.482,0,0,0,2.921-5.377l-17.105-26.355a3.481,3.481,0,0,0-2.92-1.586h-51.607a3.481,3.481,0,0,0-2.92,5.377l17.1,26.354A3.482,3.482,0,0,0,2413.362,1948.6Z" transform="translate(-2247.676 -1799.391)" fill="none" stroke="#000100" stroke-miterlimit="10" stroke-width="2.776"/>
          <path id="Path_1031451" data-name="Path 1031451" d="M2677.345,2460.852h73.363a2.082,2.082,0,0,0,0-4.165h-73.363a2.082,2.082,0,0,0,0,4.165" transform="translate(-2513.07 -2308.022)" fill="#082e6c"/>
          <path id="Path_1031452" data-name="Path 1031452" d="M2821.751,2011.737c-1.157,1.157-.435,3.756,1.614,5.8s4.647,2.771,5.8,1.614.435-3.756-1.614-5.8-4.648-2.771-5.8-1.614" transform="translate(-2650.173 -1889.487)" fill="#082e6c"/>
        </g>
      </g>
    </g>
  </g>
</svg>
